<?xml version="1.0" encoding="UTF-8" standalone="no"?>
<!DOCTYPE svg PUBLIC "-//W3C//DTD SVG 1.1//EN"
 "http://www.w3.org/Graphics/SVG/1.1/DTD/svg11.dtd">
<!-- Generated by graphviz version 7.0.6 (20230106.0513)
 -->
<!-- Title: html Pages: 1 -->
<svg width="317pt" height="105pt"
 viewBox="0.00 0.00 317.00 104.81" xmlns="http://www.w3.org/2000/svg" xmlns:xlink="http://www.w3.org/1999/xlink">
<g id="graph0" class="graph" transform="scale(1 1) rotate(0) translate(4 100.81)">
<title>html</title>
<polygon fill="white" stroke="none" points="-4,4 -4,-100.81 313,-100.81 313,4 -4,4"/>
<!-- a -->
<g id="node1" class="node">
<title>a</title>
<polygon fill="none" stroke="black" points="13,-40.5 13,-61.5 71,-61.5 71,-40.5 13,-40.5"/>
<text text-anchor="start" x="16" y="-47.3" font-family="Times,serif" font-size="14.00">column 1</text>
<polygon fill="none" stroke="black" points="75,-40.5 75,-61.5 133,-61.5 133,-40.5 75,-40.5"/>
<text text-anchor="start" x="78" y="-47.3" font-family="Times,serif" font-size="14.00">column 2</text>
<polygon fill="none" stroke="black" points="13,-15.5 13,-36.5 133,-36.5 133,-15.5 13,-15.5"/>
<text text-anchor="start" x="52" y="-22.3" font-family="Times,serif" font-size="14.00">colspan</text>
<polygon fill="none" stroke="black" points="8,-10.5 8,-66.5 138,-66.5 138,-10.5 8,-10.5"/>
</g>
<!-- b -->
<g id="node2" class="node">
<title>b</title>
<polygon fill="none" stroke="black" points="192.5,-5.5 192.5,-72.5 217.5,-72.5 217.5,-5.5 192.5,-5.5"/>
<text text-anchor="start" x="195.5" y="-35.3" font-family="Times,serif" font-size="14.00">left</text>
<polygon fill="none" stroke="black" points="219.5,-51.5 219.5,-72.5 265.5,-72.5 265.5,-51.5 219.5,-51.5"/>
<text text-anchor="start" x="233.5" y="-58.3" font-family="Times,serif" font-size="14.00">top</text>
<polygon fill="none" stroke="black" points="267.5,-5.5 267.5,-72.5 299.5,-72.5 299.5,-5.5 267.5,-5.5"/>
<text text-anchor="start" x="270.5" y="-35.3" font-family="Times,serif" font-size="14.00">right</text>
<polygon fill="none" stroke="black" points="219.5,-28.5 219.5,-49.5 265.5,-49.5 265.5,-28.5 219.5,-28.5"/>
<text text-anchor="start" x="225.5" y="-35.3" font-family="Times,serif" font-size="14.00">center</text>
<polygon fill="none" stroke="black" points="219.5,-5.5 219.5,-26.5 265.5,-26.5 265.5,-5.5 219.5,-5.5"/>
<text text-anchor="start" x="222.5" y="-12.3" font-family="Times,serif" font-size="14.00">bottom</text>
</g>
<!-- a&#45;&gt;b -->
<g id="edge1" class="edge">
<title>a:a1&#45;&gt;b:b1</title>
<path fill="none" stroke="black" d="M42,-62.5C42,-129.68 154.91,-82.2 210.84,-54.55"/>
<polygon fill="black" stroke="black" points="212.19,-57.79 219.55,-50.17 209.04,-51.54 212.19,-57.79"/>
</g>
<!-- a&#45;&gt;b -->
<g id="edge2" class="edge">
<title>a:a2&#45;&gt;b:b2</title>
<path fill="none" stroke="black" d="M134,-25.5C155.9,-25.5 163.06,-34.58 180.12,-37.57"/>
<polygon fill="black" stroke="black" points="179.74,-41.05 189.99,-38.38 180.31,-34.07 179.74,-41.05"/>
</g>
</g>
</svg>
