<?xml version="1.0" encoding="UTF-8" standalone="no"?>
<!DOCTYPE svg PUBLIC "-//W3C//DTD SVG 1.1//EN"
 "http://www.w3.org/Graphics/SVG/1.1/DTD/svg11.dtd">
<!-- Generated by graphviz version 2.38.0 (20140413.2041)
 -->
<!-- Title: ranked Pages: 1 -->
<svg width="382pt" height="204pt"
 viewBox="0.00 0.00 382.00 204.00" xmlns="http://www.w3.org/2000/svg" xmlns:xlink="http://www.w3.org/1999/xlink">
<g id="graph0" class="graph" transform="scale(1 1) rotate(0) translate(4 200)">
<title>ranked</title>
<polygon fill="white" stroke="none" points="-4,4 -4,-200 378,-200 378,4 -4,4"/>
<g id="clust1" class="cluster"><title>cluster_A</title>
<polygon fill="none" stroke="black" points="8,-80 8,-132 222,-132 222,-80 8,-80"/>
</g>
<g id="clust3" class="cluster"><title>cluster_B</title>
<polygon fill="none" stroke="black" points="152,-8 152,-60 366,-60 366,-8 152,-8"/>
</g>
<!-- a1 -->
<g id="node1" class="node"><title>a1</title>
<ellipse fill="none" stroke="black" cx="43" cy="-106" rx="27" ry="18"/>
<text text-anchor="middle" x="43" y="-101.8" font-family="Times,serif" font-size="14.00">a1</text>
</g>
<!-- a2 -->
<g id="node2" class="node"><title>a2</title>
<ellipse fill="none" stroke="black" cx="115" cy="-106" rx="27" ry="18"/>
<text text-anchor="middle" x="115" y="-101.8" font-family="Times,serif" font-size="14.00">a2</text>
</g>
<!-- a1&#45;&gt;a2 -->
<g id="edge1" class="edge"><title>a1&#45;&gt;a2</title>
<path fill="none" stroke="black" d="M70,-106C72.6147,-106 75.2295,-106 77.8442,-106"/>
<polygon fill="black" stroke="black" points="77.9297,-109.5 87.9297,-106 77.9297,-102.5 77.9297,-109.5"/>
</g>
<!-- a3 -->
<g id="node3" class="node"><title>a3</title>
<ellipse fill="none" stroke="black" cx="187" cy="-106" rx="27" ry="18"/>
<text text-anchor="middle" x="187" y="-101.8" font-family="Times,serif" font-size="14.00">a3</text>
</g>
<!-- a2&#45;&gt;a3 -->
<g id="edge2" class="edge"><title>a2&#45;&gt;a3</title>
<path fill="none" stroke="black" d="M142,-106C144.615,-106 147.229,-106 149.844,-106"/>
<polygon fill="black" stroke="black" points="149.93,-109.5 159.93,-106 149.93,-102.5 149.93,-109.5"/>
</g>
<!-- b1 -->
<g id="node4" class="node"><title>b1</title>
<ellipse fill="none" stroke="black" cx="187" cy="-34" rx="27" ry="18"/>
<text text-anchor="middle" x="187" y="-29.8" font-family="Times,serif" font-size="14.00">b1</text>
</g>
<!-- a3&#45;&gt;b1 -->
<g id="edge3" class="edge"><title>a3&#45;&gt;b1</title>
<path fill="none" stroke="black" d="M187,-87.6966C187,-79.9827 187,-70.7125 187,-62.1124"/>
<polygon fill="black" stroke="black" points="190.5,-62.1043 187,-52.1043 183.5,-62.1044 190.5,-62.1043"/>
</g>
<!-- b2 -->
<g id="node5" class="node"><title>b2</title>
<ellipse fill="none" stroke="black" cx="259" cy="-34" rx="27" ry="18"/>
<text text-anchor="middle" x="259" y="-29.8" font-family="Times,serif" font-size="14.00">b2</text>
</g>
<!-- b1&#45;&gt;b2 -->
<g id="edge4" class="edge"><title>b1&#45;&gt;b2</title>
<path fill="none" stroke="black" d="M214,-34C216.615,-34 219.229,-34 221.844,-34"/>
<polygon fill="black" stroke="black" points="221.93,-37.5001 231.93,-34 221.93,-30.5001 221.93,-37.5001"/>
</g>
<!-- b3 -->
<g id="node6" class="node"><title>b3</title>
<ellipse fill="none" stroke="black" cx="331" cy="-34" rx="27" ry="18"/>
<text text-anchor="middle" x="331" y="-29.8" font-family="Times,serif" font-size="14.00">b3</text>
</g>
<!-- b2&#45;&gt;b3 -->
<g id="edge5" class="edge"><title>b2&#45;&gt;b3</title>
<path fill="none" stroke="black" d="M286,-34C288.615,-34 291.229,-34 293.844,-34"/>
<polygon fill="black" stroke="black" points="293.93,-37.5001 303.93,-34 293.93,-30.5001 293.93,-37.5001"/>
</g>
<!-- begin -->
<g id="node7" class="node"><title>begin</title>
<ellipse fill="none" stroke="black" cx="43" cy="-178" rx="29.5104" ry="18"/>
<text text-anchor="middle" x="43" y="-173.8" font-family="Times,serif" font-size="14.00">begin</text>
</g>
<!-- begin&#45;&gt;a1 -->
<g id="edge6" class="edge"><title>begin&#45;&gt;a1</title>
<path fill="none" stroke="black" d="M43,-159.697C43,-151.983 43,-142.712 43,-134.112"/>
<polygon fill="black" stroke="black" points="46.5001,-134.104 43,-124.104 39.5001,-134.104 46.5001,-134.104"/>
</g>
</g>
</svg>
