<?xml version="1.0" encoding="UTF-8" standalone="no"?>
<!DOCTYPE svg PUBLIC "-//W3C//DTD SVG 1.1//EN"
 "http://www.w3.org/Graphics/SVG/1.1/DTD/svg11.dtd">
<!-- Generated by graphviz version 7.0.6 (20230106.0513)
 -->
<!-- Title: Records Pages: 1 -->
<svg width="88pt" height="253pt"
 viewBox="0.00 0.00 88.00 253.00" xmlns="http://www.w3.org/2000/svg" xmlns:xlink="http://www.w3.org/1999/xlink">
<g id="graph0" class="graph" transform="scale(1 1) rotate(0) translate(4 249)">
<title>Records</title>
<polygon fill="white" stroke="none" points="-4,4 -4,-249 84,-249 84,4 -4,4"/>
<!-- one -->
<g id="node1" class="node">
<title>one</title>
<polygon fill="none" stroke="black" points="1,-152.5 1,-244.5 79,-244.5 79,-152.5 1,-152.5"/>
<text text-anchor="middle" x="40" y="-229.3" font-family="Times,serif" font-size="14.00">RecordOne</text>
<polyline fill="none" stroke="black" points="1,-221.5 79,-221.5"/>
<text text-anchor="end" x="71" y="-206.3" font-family="Times,serif" font-size="14.00">right</text>
<polyline fill="none" stroke="black" points="1,-198.5 79,-198.5"/>
<text text-anchor="middle" x="40" y="-183.3" font-family="Times,serif" font-size="14.00">centre</text>
<polyline fill="none" stroke="black" points="1,-175.5 79,-175.5"/>
<text text-anchor="start" x="9" y="-160.3" font-family="Times,serif" font-size="14.00">left</text>
</g>
<!-- two -->
<g id="node2" class="node">
<title>two</title>
<polygon fill="none" stroke="black" points="0,-0.5 0,-115.5 80,-115.5 80,-0.5 0,-0.5"/>
<text text-anchor="middle" x="40" y="-100.3" font-family="Times,serif" font-size="14.00">RecordTwo</text>
<polyline fill="none" stroke="black" points="0,-92.5 80,-92.5"/>
<text text-anchor="middle" x="40" y="-77.3" font-family="Times,serif" font-size="14.00">row</text>
<polyline fill="none" stroke="black" points="0,-69.5 80,-69.5"/>
<text text-anchor="middle" x="40" y="-54.3" font-family="Times,serif" font-size="14.00">row</text>
<polyline fill="none" stroke="black" points="0,-46.5 80,-46.5"/>
<text text-anchor="middle" x="40" y="-31.3" font-family="Times,serif" font-size="14.00">row</text>
<polyline fill="none" stroke="black" points="0,-23.5 80,-23.5"/>
<text text-anchor="middle" x="40" y="-8.3" font-family="Times,serif" font-size="14.00">row</text>
</g>
<!-- one&#45;&gt;two -->
<g id="edge1" class="edge">
<title>one&#45;&gt;two</title>
<path fill="none" stroke="black" d="M40,-152.53C40,-144.29 40,-135.53 40,-126.8"/>
<polygon fill="black" stroke="black" points="43.5,-126.9 40,-116.9 36.5,-126.9 43.5,-126.9"/>
</g>
</g>
</svg>
