<?xml version="1.0" encoding="UTF-8" standalone="no"?>
<!DOCTYPE svg PUBLIC "-//W3C//DTD SVG 1.1//EN"
 "http://www.w3.org/Graphics/SVG/1.1/DTD/svg11.dtd">
<!-- Generated by graphviz version 2.44.1 (20200629.0846)
 -->
<!-- Title: Couriers Pages: 1 -->
<svg width="246pt" height="199pt"
 viewBox="0.00 0.00 245.50 199.00" xmlns="http://www.w3.org/2000/svg" xmlns:xlink="http://www.w3.org/1999/xlink">
<g id="graph0" class="graph" transform="scale(1 1) rotate(0) translate(4 195)">
<title>Couriers</title>
<polygon fill="white" stroke="transparent" points="-4,4 -4,-195 241.5,-195 241.5,4 -4,4"/>
<!-- Courier -->
<g id="node1" class="node">
<title>Courier</title>
<polygon fill="none" stroke="black" points="40,-101.5 40,-190.5 201,-190.5 201,-101.5 40,-101.5"/>
<text text-anchor="middle" x="120.5" y="-176.9" font-family="Bitstream Vera Sans" font-size="12.00">Courier</text>
<polyline fill="none" stroke="black" points="40,-169.5 201,-169.5 "/>
<text text-anchor="start" x="48" y="-155.9" font-family="Bitstream Vera Sans" font-size="12.00">+ name : string</text>
<text text-anchor="start" x="48" y="-142.9" font-family="Bitstream Vera Sans" font-size="12.00">+ home_country : string</text>
<polyline fill="none" stroke="black" points="40,-135.5 201,-135.5 "/>
<text text-anchor="start" x="48" y="-121.9" font-family="Bitstream Vera Sans" font-size="12.00">+ calculateShipping() : float</text>
<text text-anchor="start" x="48" y="-108.9" font-family="Bitstream Vera Sans" font-size="12.00">+ ship(): boolean</text>
</g>
<!-- Monotype -->
<g id="node2" class="node">
<title>Monotype</title>
<polygon fill="none" stroke="black" points="0,-0.5 0,-64.5 113,-64.5 113,-0.5 0,-0.5"/>
<text text-anchor="middle" x="56.5" y="-50.9" font-family="Bitstream Vera Sans" font-size="12.00">MonotypeDelivery</text>
<polyline fill="none" stroke="black" points="0,-43.5 113,-43.5 "/>
<polyline fill="none" stroke="black" points="0,-21.5 113,-21.5 "/>
<text text-anchor="start" x="8" y="-7.9" font-family="Bitstream Vera Sans" font-size="12.00">+ ship(): boolean</text>
</g>
<!-- Courier&#45;&gt;Monotype -->
<g id="edge2" class="edge">
<title>Courier&#45;&gt;Monotype</title>
<path fill="none" stroke="black" d="M90.41,-92.57C84.94,-83.05 79.4,-73.39 74.42,-64.72"/>
<polygon fill="none" stroke="black" points="87.38,-94.32 95.39,-101.25 93.45,-90.84 87.38,-94.32"/>
</g>
<!-- Pigeon -->
<g id="node3" class="node">
<title>Pigeon</title>
<polygon fill="none" stroke="black" points="131.5,-0.5 131.5,-64.5 237.5,-64.5 237.5,-0.5 131.5,-0.5"/>
<text text-anchor="middle" x="184.5" y="-50.9" font-family="Bitstream Vera Sans" font-size="12.00">PigeonPost</text>
<polyline fill="none" stroke="black" points="131.5,-43.5 237.5,-43.5 "/>
<polyline fill="none" stroke="black" points="131.5,-21.5 237.5,-21.5 "/>
<text text-anchor="start" x="139.5" y="-7.9" font-family="Bitstream Vera Sans" font-size="12.00">+ ship(): boolean</text>
</g>
<!-- Courier&#45;&gt;Pigeon -->
<g id="edge1" class="edge">
<title>Courier&#45;&gt;Pigeon</title>
<path fill="none" stroke="black" d="M150.59,-92.57C156.06,-83.05 161.6,-73.39 166.58,-64.72"/>
<polygon fill="none" stroke="black" points="147.55,-90.84 145.61,-101.25 153.62,-94.32 147.55,-90.84"/>
</g>
</g>
</svg>
